<?xml version="1.0" encoding="utf-8"?>
<!-- Generator: Adobe Illustrator 25.4.1, SVG Export Plug-In . SVG Version: 6.00 Build 0)  -->
<svg version="1.1" id="Layer_1" xmlns="http://www.w3.org/2000/svg" xmlns:xlink="http://www.w3.org/1999/xlink" x="0px" y="0px"
	 viewBox="0 0 41.3 48.2" style="enable-background:new 0 0 41.3 48.2;" xml:space="preserve">
<g>
	<path d="M19.9,47.8c-6.6-3.5-11.4-7.6-15-14.3S0,19,0,3.9V0h41.3v3.9c0,15.1-1.2,23-4.9,29.6c-3.6,6.6-8.5,10.8-15,14.3l-0.7,0.4
		L19.9,47.8z M2,5.8c0,14.6,1.8,21.3,4.6,26.6c3,5.7,6.7,9.1,13.4,13.2l0.6,0.4l0.6-0.4c6.7-4.1,10.4-7.5,13.4-13.2
		c2.8-5.3,4.6-12,4.6-26.6V1.9H2V5.8z M27.9,21.1c0.5,0.5,1.4,1,3,1s3.1-0.5,3.1-0.5H34c0,1.1-1.4,1.9-2.1,2.2
		c-0.8,0.3-1.6,0.4-2.4,0.4s-2-0.2-2.4-0.4v0.1c0.4,0.7,1.3,1.2,1.9,1.4c0.7,0.2,1.3,0.2,1.6,0.2s0.9,0,0.9,0v0.1c0,0-0.3,0.5-1.2,1
		C29.4,26.9,28.6,27,28,27c-1,0-1.8-0.3-2.5-0.9h-0.1c0.1,0.7,1,2.3,2.1,2.3c0.3,0,0.7-0.1,0.7-0.6h0.1c0,0,0.4,0.2,0.4,0.8
		c0,0.6-0.4,1.4-1.6,1.4c-1.9,0-3.1-2.1-3.4-3.2h-0.1c0,1.7,0.6,3.3,0.6,3.3l0,0c-0.9-0.3-2-1.6-2.3-2.8h-0.1c0,4,1.3,5.1,2.9,5.1
		c1.2,0,1.8-0.6,1.8-0.6h0.1c0,2.2-1.2,3-2.3,3c-1,0-1.8-0.5-2.3-1.4h-0.1c0,1.5,0.6,3.1,2.5,3.1c0.8,0,1.2-0.3,1.2-0.3h0.1
		c0,1.3-0.8,2.2-2,2.2c-1.1,0-1.9-0.9-2.2-1.6h-0.1c0,0,0.4,1.3,0.4,2.3c0,1.3-0.6,2.3-1,2.8h-0.1c-0.4-0.5-1-1.6-1-2.8
		c0-1.1,0.4-2.3,0.4-2.3h-0.1c-0.3,0.7-1.2,1.6-2.2,1.6c-1.3,0-2-1-2-2.2h0.1c0,0,0.4,0.3,1.2,0.3c1.9,0,2.5-1.7,2.5-3.1h-0.1
		c-0.5,0.9-1.4,1.4-2.3,1.4c-1.2,0-2.3-0.8-2.3-3h0.1c0,0,0.6,0.6,1.8,0.6c1.6,0,2.9-1.2,2.9-5.1h-0.1C19,28.5,18,29.8,17,30.1l0,0
		c0,0,0.6-1.6,0.6-3.3h-0.1C17.2,27.9,16,30,14.1,30c-1.2,0-1.6-0.8-1.6-1.4c0-0.6,0.4-0.8,0.4-0.8H13c0,0.4,0.3,0.6,0.7,0.6
		c1.2,0,2-1.6,2.1-2.3h-0.1C15,26.7,14.2,27,13.3,27c-0.6,0-1.4-0.1-2.2-0.5c-0.9-0.4-1.2-1-1.2-1v-0.1c0,0,0.6,0,0.9,0
		c0.3,0,0.9,0,1.6-0.2c0.7-0.2,1.6-0.7,1.9-1.4v-0.1c-0.4,0.2-1.6,0.4-2.4,0.4c-0.8,0-1.6-0.1-2.4-0.4c-0.8-0.3-2.1-1.2-2.1-2.2h0.1
		c0,0,1.5,0.5,3.1,0.5c1.6,0,2.5-0.5,3-1V21c-2.6,0-4.2-0.4-5-0.8c-0.9-0.4-2-1.2-2-2.7h0.1c0,0,1.1,0.8,3.1,0.8
		c1.6,0,2.5-0.5,2.9-0.9v-0.1c-2.1,0-3.7-0.3-4.8-0.9c-1.1-0.6-1.8-1.5-1.8-2.7h0.1c0,0,1.1,0.8,3.1,0.8c1.6,0,2.5-0.5,2.9-0.9v-0.1
		c-2.1,0-3.7-0.3-4.8-0.9s-1.8-1.5-1.8-2.7h0.1c0,0,1.1,0.8,3.1,0.8c1.6,0,2.5-0.5,2.9-0.9V9.7C9,9.7,7.5,9.4,6.4,8.8
		c-1.1-0.6-1.8-1.5-1.8-4h0.1c2,1.6,3.5,1.8,5.2,1.8c2,0,3.5-0.4,4.1-0.4c0.5,0,1.1,0.3,1.1,1.1c0,0.8-0.7,1.9-0.7,3.9
		c0,2.7,1.2,4.4,2.7,4.4c0,0,0.3,0.8,1.4,0.8c0.5,0,0.7-0.1,0.7-0.1h0.1c0.2,1.4,1.4,1.9,1.4,1.9h0.1c0,0,1.1-0.5,1.4-1.9h0.1
		c0,0,0.2,0.1,0.7,0.1c1.1,0,1.4-0.8,1.4-0.8c1.6,0,2.7-1.7,2.7-4.4c0-2-0.7-3.1-0.7-3.9c0-0.8,0.6-1.1,1.1-1.1
		c0.6,0,2.1,0.4,4.1,0.4c1.7,0,3.2-0.3,5.2-1.8h0.1c0,2.5-0.8,3.4-1.8,4c-1.1,0.6-2.6,0.9-4.8,0.9v0.1c0.4,0.4,1.3,0.9,2.9,0.9
		c2,0,3.1-0.8,3.1-0.8h0.1c0,1.3-0.8,2.1-1.8,2.7c-1.1,0.6-2.6,0.9-4.8,0.9v0.1c0.4,0.4,1.3,0.9,2.9,0.9c2,0,3.1-0.8,3.1-0.8h0.1
		c0,1.3-0.8,2.1-1.8,2.7c-1.1,0.6-2.6,0.9-4.8,0.9v0.1c0.4,0.4,1.3,0.9,2.9,0.9c2,0,3.1-0.8,3.1-0.8h0.1c0,1.6-1.2,2.3-2,2.7
		S30.5,21,27.9,21.1L27.9,21.1L27.9,21.1z M21.6,14.7L21.6,14.7c-0.1,1.5-1,2.4-1,2.4h-0.1c0,0-0.9-1-0.9-2.4h-0.1
		c-0.2,0.6-0.6,0.9-1.1,0.9c-0.7,0-1-0.7-1-0.7c0.4-0.9,0.6-1.5,0.8-2c0.2-0.6,0.4-1.3,0.4-1.6c0-0.3-0.1-0.7-0.8-0.9l-0.4-0.1
		c-0.2,0-0.4-0.1-0.6-0.1c-0.3,0-0.6,0.1-0.6,0.8h-0.1c-0.2-0.2-0.5-0.6-0.5-1.3c0-0.4,0.1-0.6,0.4-0.8c0.4-0.2,1.3-0.6,2.2-0.8
		l0.4-0.6c0,0,0.5-0.1,1.1-0.1c1.3,0,2.9,0.4,3.5,0.4c0.5,0,1.1-0.2,1.4-0.6h0.1v0.3c0,0.9-0.6,1.4-1.8,1.4V9c1.3,0,1.9,0.6,1.9,1.6
		c0,0.7-0.4,1.1-0.6,1.2h-0.1c0-0.2-0.3-0.5-0.6-0.5S23,11.5,23,12c0,0.6,0.4,2.2,0.7,2.9c0,0-0.2,0.7-1,0.7
		C22.3,15.5,21.8,15.2,21.6,14.7z M19.4,8.3L19.4,8.3c0,0.4,0.1,0.7,0.6,0.7s0.6-0.3,0.6-0.6V8.3H19.4z"/>
</g>
</svg>
